<svg width="18" height="18" viewBox="0 0 18 18" fill="none" xmlns="http://www.w3.org/2000/svg">
<g filter="url(#filter0_ii_20439_165801)">
<path d="M10.7957 12.1462C10.4564 12.2802 10.125 12.0003 10.125 11.6354C10.125 11.367 10.3106 11.1395 10.5516 11.0213C11.2983 10.6551 11.8125 9.89306 11.8125 9C11.8125 8.10694 11.2983 7.34495 10.5516 6.9787C10.3106 6.86049 10.125 6.633 10.125 6.36456C10.125 5.99969 10.4564 5.71982 10.7957 5.85383C12.0456 6.34739 12.9375 7.57118 12.9375 9C12.9375 10.4288 12.0456 11.6526 10.7957 12.1462ZM10.7826 2.49268C10.4426 2.40003 10.125 2.66938 10.125 3.02175C10.125 3.29276 10.317 3.52327 10.5771 3.59937C12.9095 4.28173 14.625 6.44818 14.625 9C14.625 11.5518 12.9095 13.7183 10.5771 14.4006C10.317 14.4767 10.125 14.7072 10.125 14.9783C10.125 15.3306 10.4426 15.6 10.7826 15.5073C13.6454 14.7271 15.75 12.113 15.75 9C15.75 5.88704 13.6454 3.27286 10.7826 2.49268ZM4.96599 6.28401C4.66762 6.58238 4.26295 6.75 3.84099 6.75C2.96231 6.75 2.25 7.46231 2.25 8.34099V9.65901C2.25 10.5377 2.96231 11.25 3.84099 11.25C4.26295 11.25 4.66762 11.4176 4.96599 11.716L5.15901 11.909C6.57643 13.3264 9 12.3226 9 10.318V7.68198C9 5.67745 6.57643 4.67357 5.15901 6.09099L4.96599 6.28401Z" fill="#D3A750"/>
<path d="M10.7957 12.1462C10.4564 12.2802 10.125 12.0003 10.125 11.6354C10.125 11.367 10.3106 11.1395 10.5516 11.0213C11.2983 10.6551 11.8125 9.89306 11.8125 9C11.8125 8.10694 11.2983 7.34495 10.5516 6.9787C10.3106 6.86049 10.125 6.633 10.125 6.36456C10.125 5.99969 10.4564 5.71982 10.7957 5.85383C12.0456 6.34739 12.9375 7.57118 12.9375 9C12.9375 10.4288 12.0456 11.6526 10.7957 12.1462ZM10.7826 2.49268C10.4426 2.40003 10.125 2.66938 10.125 3.02175C10.125 3.29276 10.317 3.52327 10.5771 3.59937C12.9095 4.28173 14.625 6.44818 14.625 9C14.625 11.5518 12.9095 13.7183 10.5771 14.4006C10.317 14.4767 10.125 14.7072 10.125 14.9783C10.125 15.3306 10.4426 15.6 10.7826 15.5073C13.6454 14.7271 15.75 12.113 15.75 9C15.75 5.88704 13.6454 3.27286 10.7826 2.49268ZM4.96599 6.28401C4.66762 6.58238 4.26295 6.75 3.84099 6.75C2.96231 6.75 2.25 7.46231 2.25 8.34099V9.65901C2.25 10.5377 2.96231 11.25 3.84099 11.25C4.26295 11.25 4.66762 11.4176 4.96599 11.716L5.15901 11.909C6.57643 13.3264 9 12.3226 9 10.318V7.68198C9 5.67745 6.57643 4.67357 5.15901 6.09099L4.96599 6.28401Z" fill="url(#paint0_radial_20439_165801)" fill-opacity="0.3"/>
</g>
<defs>
<filter id="filter0_ii_20439_165801" x="2.25" y="2.47427" width="13.5" height="13.0515" filterUnits="userSpaceOnUse" color-interpolation-filters="sRGB">
<feFlood flood-opacity="0" result="BackgroundImageFix"/>
<feBlend mode="normal" in="SourceGraphic" in2="BackgroundImageFix" result="shape"/>
<feColorMatrix in="SourceAlpha" type="matrix" values="0 0 0 0 0 0 0 0 0 0 0 0 0 0 0 0 0 0 127 0" result="hardAlpha"/>
<feOffset/>
<feGaussianBlur stdDeviation="0.5"/>
<feComposite in2="hardAlpha" operator="arithmetic" k2="-1" k3="1"/>
<feColorMatrix type="matrix" values="0 0 0 0 1 0 0 0 0 1 0 0 0 0 1 0 0 0 0.6 0"/>
<feBlend mode="normal" in2="shape" result="effect1_innerShadow_20439_165801"/>
<feColorMatrix in="SourceAlpha" type="matrix" values="0 0 0 0 0 0 0 0 0 0 0 0 0 0 0 0 0 0 127 0" result="hardAlpha"/>
<feOffset dy="-0.2"/>
<feComposite in2="hardAlpha" operator="arithmetic" k2="-1" k3="1"/>
<feColorMatrix type="matrix" values="0 0 0 0 0 0 0 0 0 0 0 0 0 0 0 0 0 0 0.25 0"/>
<feBlend mode="normal" in2="effect1_innerShadow_20439_165801" result="effect2_innerShadow_20439_165801"/>
</filter>
<radialGradient id="paint0_radial_20439_165801" cx="0" cy="0" r="1" gradientTransform="matrix(-4.21875 4.21875 -4.21875 -31.9043 15.2898 6.46875)" gradientUnits="userSpaceOnUse">
<stop stop-color="white"/>
<stop offset="1" stop-color="white" stop-opacity="0"/>
</radialGradient>
</defs>
</svg>
